<?xml version="1.0" encoding="UTF-8"?>
<!-- Generator: Adobe Illustrator 27.0.1, SVG Export Plug-In . SVG Version: 6.00 Build 0)  -->
<svg version="1.1" id="Layer_1" xmlns="http://www.w3.org/2000/svg" xmlns:xlink="http://www.w3.org/1999/xlink" x="0px" y="0px" viewBox="0 0 24 24" style="enable-background:new 0 0 24 24;" xml:space="preserve">
<style type="text/css">
	.st0{fill:#383D42;}
</style>
<g>
	<path class="st0" d="M15.74,15.12c-1.11,0-2.02-1.02-2.02-2.26s0.89-2.26,2.02-2.26c1.13,0,2.04,1.03,2.02,2.26   C17.76,14.1,16.87,15.12,15.74,15.12z M8.27,15.12c-1.11,0-2.02-1.02-2.02-2.26c0-1.25,0.89-2.26,2.02-2.26   c1.13,0,2.04,1.03,2.02,2.26C10.29,14.1,9.4,15.12,8.27,15.12z M19.79,4.86c-1.43-0.66-2.97-1.14-4.57-1.42   c-0.03-0.01-0.06,0.01-0.07,0.03c-0.2,0.35-0.42,0.81-0.57,1.17c-1.73-0.26-3.45-0.26-5.14,0C9.28,4.27,9.05,3.82,8.85,3.47   C8.84,3.45,8.81,3.43,8.78,3.44C7.18,3.71,5.64,4.2,4.21,4.86C4.19,4.86,4.18,4.87,4.18,4.88c-2.91,4.35-3.71,8.6-3.32,12.79   c0,0.02,0.01,0.04,0.03,0.05c1.92,1.41,3.78,2.27,5.61,2.84c0.03,0.01,0.06,0,0.08-0.03c0.43-0.59,0.82-1.21,1.15-1.87   c0.02-0.04,0-0.08-0.04-0.1c-0.61-0.23-1.19-0.51-1.75-0.84c-0.04-0.03-0.05-0.09-0.01-0.12c0.12-0.09,0.24-0.18,0.35-0.27   c0.02-0.02,0.05-0.02,0.07-0.01c3.68,1.68,7.66,1.68,11.29,0c0.02-0.01,0.05-0.01,0.07,0.01c0.11,0.09,0.23,0.19,0.35,0.27   c0.04,0.03,0.04,0.09-0.01,0.12c-0.56,0.33-1.14,0.6-1.75,0.83c-0.04,0.02-0.06,0.06-0.04,0.1c0.34,0.65,0.72,1.28,1.15,1.87   c0.02,0.02,0.05,0.04,0.08,0.03c1.84-0.57,3.7-1.42,5.62-2.84c0.02-0.01,0.03-0.03,0.03-0.05c0.47-4.85-0.78-9.06-3.32-12.79   C19.81,4.87,19.8,4.86,19.79,4.86z"/>
</g>
</svg>